<svg width="16" height="16" viewBox="0 0 16 16" fill="none" xmlns="http://www.w3.org/2000/svg">
<path d="M8.33348 15.1667H2.72014C1.67348 15.1667 0.813477 14.3267 0.813477 13.2867V3.39338C0.813477 2.37338 1.19348 1.58004 1.88681 1.14671C2.58681 0.70671 3.49348 0.720043 4.43348 1.18671L7.39348 2.64004C8.20014 3.04004 8.83348 4.04671 8.83348 4.94004V14.6667C8.83348 14.94 8.60681 15.1667 8.33348 15.1667ZM3.04014 1.83338C2.80681 1.83338 2.59348 1.88671 2.41348 2.00004C2.02681 2.24004 1.81348 2.74004 1.81348 3.39338V13.2867C1.81348 13.7734 2.22014 14.1667 2.72014 14.1667H7.83348V4.94004C7.83348 4.42671 7.42014 3.76671 6.94681 3.54004L3.98681 2.08671C3.64681 1.92004 3.32681 1.83338 3.04014 1.83338Z" fill="#727D94"/>
<path d="M12.5402 15.1666H8.3335C8.06016 15.1666 7.8335 14.94 7.8335 14.6666V6.94664C7.8335 6.79331 7.90016 6.65331 8.02016 6.55997C8.14016 6.46664 8.28683 6.42664 8.44016 6.45997L8.7535 6.52664L13.1135 7.49997C14.4402 7.79331 15.1068 8.57331 15.1468 9.89997C15.1535 9.89997 15.1535 9.96664 15.1535 10.04V12.56C15.1468 14.2666 14.2468 15.1666 12.5402 15.1666ZM8.8335 14.1666H12.5402C13.7135 14.1666 14.1468 13.7333 14.1468 12.56V9.98664C14.1135 9.07331 13.7668 8.66664 12.8935 8.47331L8.8335 7.56664V14.1666Z" fill="#727D94"/>
<path d="M5.97984 6.5H3.6665C3.39317 6.5 3.1665 6.27333 3.1665 6C3.1665 5.72667 3.39317 5.5 3.6665 5.5H5.97984C6.25317 5.5 6.47984 5.72667 6.47984 6C6.47984 6.27333 6.25984 6.5 5.97984 6.5Z" fill="#727D94"/>
<path d="M5.97984 9.16663H3.6665C3.39317 9.16663 3.1665 8.93996 3.1665 8.66663C3.1665 8.39329 3.39317 8.16663 3.6665 8.16663H5.97984C6.25317 8.16663 6.47984 8.39329 6.47984 8.66663C6.47984 8.93996 6.25984 9.16663 5.97984 9.16663Z" fill="#727D94"/>
<path d="M10.1465 11.8333C9.04648 11.8333 8.14648 10.9333 8.14648 9.83328V7.01328C8.14648 6.85995 8.21315 6.71995 8.33315 6.61995C8.45315 6.51995 8.60648 6.48661 8.75315 6.51995L11.7532 7.19328C11.9798 7.24661 12.1465 7.44661 12.1465 7.67995V9.82661C12.1465 10.9333 11.2532 11.8333 10.1465 11.8333ZM9.14648 7.63995V9.83328C9.14648 10.3866 9.59315 10.8333 10.1465 10.8333C10.6998 10.8333 11.1465 10.3866 11.1465 9.83328V8.08661L9.14648 7.63995Z" fill="#727D94"/>
<path d="M13.1465 11.8333C12.0465 11.8333 11.1465 10.9333 11.1465 9.8333V7.68663C11.1465 7.5333 11.2132 7.3933 11.3332 7.29996C11.4532 7.20663 11.6065 7.16663 11.7532 7.19996L13.1065 7.49996C14.4332 7.7933 15.0998 8.5733 15.1398 9.89996C15.1398 9.9133 15.1398 9.92663 15.1398 9.93996C15.0865 11 14.2132 11.8333 13.1465 11.8333ZM12.1465 8.30663V9.8333C12.1465 10.3866 12.5932 10.8333 13.1465 10.8333C13.6732 10.8333 14.1065 10.4266 14.1398 9.90663C14.1065 9.06663 13.7598 8.66663 12.8932 8.4733L12.1465 8.30663Z" fill="#727D94"/>
</svg>
