<svg width="16" height="16" viewBox="0 0 16 16" fill="none" xmlns="http://www.w3.org/2000/svg">
<path d="M7.99984 14.72C7.79984 14.72 7.59985 14.6733 7.43319 14.58C6.18652 13.9 3.99984 13.18 2.62651 13L2.43319 12.9733C1.55985 12.8667 0.839844 12.0466 0.839844 11.16V3.10662C0.839844 2.57995 1.04651 2.09997 1.42651 1.75331C1.80651 1.40664 2.29982 1.23996 2.81982 1.28663C4.27982 1.40663 6.49317 2.13997 7.7465 2.91997L7.90649 3.01332C7.95316 3.03332 8.05318 3.03998 8.09318 3.01332L8.19983 2.94662C8.6465 2.66662 9.20649 2.39328 9.81982 2.14662C9.97316 2.08662 10.1465 2.10663 10.2865 2.19996C10.4265 2.29329 10.5065 2.44662 10.5065 2.61329V4.39995L11.0599 4.03329C11.2265 3.91996 11.4465 3.91996 11.6132 4.03329L12.1665 4.39995V1.85332C12.1665 1.61332 12.3398 1.40662 12.5732 1.35995C12.7665 1.32662 12.9598 1.29996 13.1332 1.28663C13.1465 1.28663 13.1998 1.28663 13.2132 1.28663C13.6998 1.24663 14.1998 1.41331 14.5732 1.75998C14.9532 2.10665 15.1598 2.58662 15.1598 3.11329V11.16C15.1598 12.0533 14.4399 12.8667 13.5599 12.9733L13.3398 13C11.9665 13.18 9.76651 13.9066 8.54651 14.58C8.39984 14.6733 8.19984 14.72 7.99984 14.72ZM2.65316 2.27328C2.43982 2.27328 2.24651 2.34662 2.09318 2.48662C1.92651 2.63996 1.83317 2.85995 1.83317 3.10662V11.16C1.83317 11.5533 2.17318 11.9333 2.55318 11.9866L2.75317 12.0133C4.25317 12.2133 6.55318 12.9666 7.88652 13.7C7.94652 13.7266 8.03315 13.7333 8.06649 13.72C9.40649 12.98 11.7132 12.22 13.2198 12.02L13.4465 11.9933C13.8265 11.9466 14.1665 11.56 14.1665 11.1666V3.11996C14.1665 2.8733 14.0732 2.65997 13.9065 2.49997C13.7398 2.34664 13.5065 2.2733 13.2665 2.28663C13.2465 2.28663 13.1865 2.28663 13.1732 2.28663V5.3333C13.1732 5.51997 13.0732 5.68662 12.9065 5.77328C12.7398 5.85995 12.5465 5.8533 12.3932 5.74663L11.3398 5.04664L10.2865 5.74663C10.1332 5.84663 9.93982 5.85995 9.77315 5.77328C9.61315 5.68662 9.50651 5.51997 9.50651 5.3333V3.37997C9.21984 3.51997 8.95982 3.65997 8.73315 3.7933L8.62651 3.85995C8.25984 4.08662 7.73985 4.08663 7.38652 3.86663L7.22652 3.76665C6.09986 3.05999 4.04649 2.37995 2.73983 2.27328C2.70649 2.27328 2.67982 2.27328 2.65316 2.27328Z" fill="#727D94"/>
<path d="M8 14.16C7.72667 14.16 7.5 13.9334 7.5 13.66V3.66003C7.5 3.3867 7.72667 3.16003 8 3.16003C8.27333 3.16003 8.5 3.3867 8.5 3.66003V13.66C8.5 13.94 8.27333 14.16 8 14.16Z" fill="#727D94"/>
<path d="M12.6667 5.83333C12.5667 5.83333 12.4733 5.80666 12.3867 5.74666L11.3333 5.04666L10.28 5.74666C10.1267 5.84666 9.93335 5.85997 9.76668 5.77331C9.60668 5.68664 9.5 5.51999 9.5 5.33333V2.61331C9.5 2.40665 9.62665 2.22664 9.81331 2.14664C10.7333 1.77997 11.74 1.49331 12.5867 1.35998C12.7333 1.33331 12.88 1.38001 12.9933 1.47334C13.1067 1.56667 13.1667 1.70668 13.1667 1.85335V5.33333C13.1667 5.51999 13.0667 5.68664 12.9 5.77331C12.8267 5.81331 12.7467 5.83333 12.6667 5.83333ZM11.3333 3.94665C11.4267 3.94665 11.5267 3.97332 11.6133 4.03332L12.1667 4.39998V2.45999C11.6333 2.57999 11.0533 2.75333 10.5 2.95999V4.39998L11.0533 4.03332C11.14 3.97332 11.24 3.94665 11.3333 3.94665Z" fill="#727D94"/>
</svg>
