<svg width="34" height="34" viewBox="0 0 34 34" fill="none" xmlns="http://www.w3.org/2000/svg">
<path d="M20.7123 21.7435L12.227 13.2582C11.9371 12.9683 11.9371 12.4875 12.227 12.1976C12.5169 11.9077 12.9977 11.9077 13.2877 12.1976L21.7729 20.6828C22.0628 20.9728 22.0628 21.4536 21.7729 21.7435C21.483 22.0334 21.0022 22.0334 20.7123 21.7435Z" fill="white"/>
<path d="M12.2271 21.7435C11.9372 21.4536 11.9372 20.9728 12.2271 20.6828L20.7123 12.1976C21.0023 11.9077 21.4831 11.9077 21.773 12.1976C22.0629 12.4875 22.0629 12.9683 21.773 13.2582L13.2877 21.7435C12.9978 22.0334 12.517 22.0334 12.2271 21.7435Z" fill="white"/>
</svg>
