<svg width="33" height="33" viewBox="0 0 33 33" fill="none" xmlns="http://www.w3.org/2000/svg">
<g clip-path="url(#clip0_514_5058)">
<path d="M16.5 32.5C25.3366 32.5 32.5 25.3366 32.5 16.5C32.5 7.66344 25.3366 0.5 16.5 0.5C7.66344 0.5 0.5 7.66344 0.5 16.5C0.5 25.3366 7.66344 32.5 16.5 32.5Z" fill="#627EEA"/>
<path d="M16.5 4.5V13.37L23.997 16.72L16.5 4.5Z" fill="white"/>
<path d="M16.998 4.5L9.5 16.72L16.998 13.37V4.5Z" fill="white"/>
<path d="M16.5 22.852V28.879L24.002 18.5L16.5 22.852Z" fill="white"/>
<path d="M16.998 28.879V22.851L9.5 18.5L16.998 28.879Z" fill="white"/>
<path d="M16.5 21.201L23.997 16.848L16.5 13.5V21.201Z" fill="white" fill-opacity="0.2"/>
<path d="M9.5 16.848L16.998 21.201V13.5L9.5 16.848Z" fill="white"/>
</g>
<defs>
<clipPath id="clip0_514_5058">
<rect width="32" height="32" fill="white" transform="translate(0.5 0.5)"/>
</clipPath>
</defs>
</svg>
