<svg width="48" height="48" viewBox="0 0 48 48" fill="none" xmlns="http://www.w3.org/2000/svg">
<path d="M11.1404 45.4C6.46039 45.4 2.50039 41.44 2.50039 36.76V24.44C2.40039 18.6 4.56039 13.1 8.60039 8.97998C12.6404 4.87998 18.0604 2.59998 23.9004 2.59998C35.8204 2.59998 45.5004 12.3 45.5004 24.2V36.52C45.5004 41.28 41.6204 45.16 36.8604 45.16C32.1804 45.16 28.2204 41.2 28.2204 36.52V30.9C28.2204 28 30.5004 25.72 33.4004 25.72C36.3004 25.72 38.5804 28 38.5804 30.9V36.96C38.5804 37.78 37.9004 38.46 37.0804 38.46C36.2604 38.46 35.5804 37.78 35.5804 36.96V30.9C35.5804 29.54 34.4804 28.72 33.4004 28.72C32.0404 28.72 31.2204 29.82 31.2204 30.9V36.52C31.2204 39.58 33.8004 42.16 36.8604 42.16C39.9204 42.16 42.5004 39.58 42.5004 36.52V24.2C42.5004 13.94 34.1604 5.59998 23.9004 5.59998C18.8804 5.59998 14.2204 7.53998 10.7404 11.08C7.26039 14.62 5.40039 19.36 5.50039 24.4V36.76C5.50039 39.82 8.08039 42.4 11.1404 42.4C14.2004 42.4 16.7804 39.82 16.7804 36.76V31.14C16.7804 29.78 15.6804 28.96 14.6004 28.96C13.2404 28.96 12.4204 30.06 12.4204 31.14V36.98C12.4204 37.8 11.7404 38.48 10.9204 38.48C10.1004 38.48 9.42039 37.8 9.42039 36.98V31.14C9.42039 28.24 11.7004 25.96 14.6004 25.96C17.5004 25.96 19.7804 28.24 19.7804 31.14V36.76C19.7804 41.44 15.8204 45.4 11.1404 45.4Z" fill="#131519"/>
</svg>
