<svg width="38" height="38" viewBox="0 0 38 38" fill="none" xmlns="http://www.w3.org/2000/svg">
<path opacity="0.68" d="M19.0892 34.4648C27.7259 34.4648 34.7273 27.4634 34.7273 18.8268C34.7273 10.1901 27.7259 3.18872 19.0892 3.18872C10.4526 3.18872 3.45117 10.1901 3.45117 18.8268C3.45117 27.4634 10.4526 34.4648 19.0892 34.4648Z" fill="url(#paint0_linear_579_1401)"/>
<path d="M26.6984 29.0755C24.7597 30.4298 22.5042 31.2604 20.1502 31.4868C17.7963 31.7132 15.4238 31.3277 13.2626 30.3677C11.1014 29.4077 9.22482 27.9058 7.81469 26.0074C6.40455 24.109 5.50867 21.8786 5.21387 19.5322C5.24464 22.722 6.41337 25.796 8.50956 28.2005C10.6057 30.6051 13.4916 32.1821 16.6474 32.6476C19.8032 33.1131 23.0215 32.4365 25.7227 30.7396C28.4239 29.0427 30.4304 26.4371 31.3808 23.3921C30.3702 25.6798 28.7504 27.6458 26.6984 29.0755Z" fill="url(#paint1_linear_579_1401)"/>
<path d="M19.9156 29.8626C12.5626 29.8626 6.60157 23.7169 6.60157 16.1385C6.59692 13.8656 7.14542 11.6257 8.19976 9.61206C6.72478 11.8482 5.94165 14.4696 5.94828 17.1484C5.94828 24.5421 11.7629 30.5362 18.9375 30.5362C21.5573 30.5381 24.113 29.7269 26.2523 28.2147C24.3163 29.2983 22.1342 29.8658 19.9156 29.8626Z" fill="url(#paint2_linear_579_1401)"/>
<path d="M12.9987 25.7645C11.4476 24.3713 10.3026 22.584 9.68543 20.5925C9.06822 18.601 9.00178 16.4795 9.49316 14.4532C9.98455 12.427 11.0154 10.5716 12.4763 9.08401C13.9372 7.59643 15.7737 6.5322 17.7907 6.00427C15.1524 6.38874 12.7361 7.69673 10.9716 9.69551C9.20709 11.6943 8.20892 14.2542 8.15468 16.9199C8.10043 19.5855 8.99362 22.1839 10.6753 24.2529C12.357 26.3218 14.7182 27.727 17.3387 28.2185C15.7298 27.7281 14.2483 26.8904 12.9987 25.7645Z" fill="url(#paint3_linear_579_1401)"/>
<path d="M11.384 15.7845C11.6705 14.0923 12.3587 12.4936 13.3908 11.1224C14.423 9.75122 15.769 8.64764 17.3159 7.90427C18.8627 7.16089 20.5654 6.79941 22.2808 6.85016C23.9963 6.9009 25.6746 7.3624 27.1748 8.19592C25.1555 6.75634 22.6904 6.08086 20.2193 6.28996C17.7481 6.49905 15.4316 7.57911 13.6828 9.33752C11.9341 11.0959 10.8668 13.4184 10.6713 15.8906C10.4757 18.3628 11.1648 20.8242 12.6154 22.8356C11.4056 20.697 10.9707 18.2065 11.384 15.7845Z" fill="url(#paint4_linear_579_1401)"/>
<path d="M18.9842 21.7176C18.9842 21.7176 19.2007 19.666 22.0889 17.9481C22.0889 17.9481 21.847 16.1831 19.9126 13.7712C17.9782 11.3593 18.1183 10.366 18.1183 10.366C18.1183 10.366 13.1887 16.8963 15.5472 19.759C16.0018 20.3091 17.7426 21.0961 17.9922 21.4374C18.131 21.6284 17.6344 20.5625 17.3988 19.2534C17.2356 18.2334 17.2421 17.1934 17.4179 16.1755C17.4179 16.1755 17.6331 20.9573 18.9842 21.7176Z" fill="url(#paint5_linear_579_1401)"/>
<path d="M19.8504 27.3896C24.2527 25.9085 28.0349 20.4951 28.0349 20.4951C25.8522 25.4806 19.965 28.1358 19.965 28.1358C33.8355 29.0361 31.2147 13.7457 31.2147 13.7457C31.2147 13.7457 29.3083 16.2761 24.934 17.4795C20.5597 18.6829 18.8036 21.5291 19.7052 23.1757C20.6068 24.8223 19.8504 27.3896 19.8504 27.3896Z" fill="url(#paint6_linear_579_1401)"/>
<path d="M19.8504 27.3896C24.2527 25.9085 28.0349 20.4951 28.0349 20.4951C25.8522 25.4806 19.965 28.1358 19.965 28.1358C33.8355 29.0361 31.2147 13.7457 31.2147 13.7457C31.2147 13.7457 29.3083 16.2761 24.934 17.4795C20.5597 18.6829 18.8036 21.5291 19.7052 23.1757C20.6068 24.8223 19.8504 27.3896 19.8504 27.3896Z" fill="url(#paint7_linear_579_1401)"/>
<path d="M19.5029 27.4201C20.0377 25.3482 19.5882 24.3001 19.2482 23.6264C18.5338 22.1976 16.3969 21.0897 15.3756 20.4275C14.9649 20.172 14.571 19.8905 14.1964 19.5845C13.2502 18.8013 13.0184 18.5746 12.9229 18.4384C12.7956 18.2601 12.0799 22.6408 14.3632 25.4755C14.3632 25.4755 16.1766 27.7308 18.5898 27.8696H18.6025C18.6407 27.8136 17.2259 26.6586 16.2161 25.3112C15.3463 24.1537 14.6281 22.7847 14.5797 22.6166C14.5313 22.4485 17.3265 27.2087 19.5029 27.4201Z" fill="url(#paint8_linear_579_1401)"/>
<path d="M18.9999 37.2716V36.5457C14.9406 36.546 11.0068 35.1388 7.86872 32.5638C4.73065 29.9888 2.5825 26.4054 1.79029 22.4242C0.998081 18.4429 1.61083 14.3102 3.52413 10.73C5.43744 7.14993 8.53291 4.34398 12.2831 2.79031C16.0333 1.23664 20.2062 1.03138 24.0908 2.20949C27.9754 3.38761 31.3313 5.87621 33.5867 9.25127C35.8422 12.6263 36.8575 16.679 36.4599 20.7188C36.0622 24.7586 34.2761 28.5355 31.4059 31.406C29.779 33.0383 27.8453 34.3327 25.7162 35.2147C23.5871 36.0968 21.3045 36.5491 18.9999 36.5457V38C23.3957 38 27.6554 36.4759 31.0534 33.6872C34.4514 30.8986 36.7773 27.0181 37.6349 22.7068C38.4925 18.3955 37.8286 13.9202 35.7565 10.0435C33.6844 6.16682 30.3322 3.12852 26.271 1.44632C22.2099 -0.235875 17.6911 -0.457886 13.4847 0.818118C9.2782 2.09412 5.6443 4.78919 3.20214 8.44411C0.759981 12.099 -0.33933 16.4877 0.0915137 20.8623C0.522358 25.2368 2.4567 29.3267 5.56495 32.435C7.32754 34.2016 9.42174 35.6027 11.7273 36.5577C14.0329 37.5127 16.5044 38.0028 18.9999 38V37.2716Z" fill="url(#paint9_linear_579_1401)"/>
<path d="M18.9999 37.2716V36.5457C14.9406 36.546 11.0068 35.1388 7.86872 32.5638C4.73065 29.9888 2.5825 26.4054 1.79029 22.4242C0.998081 18.4429 1.61083 14.3102 3.52413 10.73C5.43744 7.14993 8.53291 4.34398 12.2831 2.79031C16.0333 1.23664 20.2062 1.03138 24.0908 2.20949C27.9754 3.38761 31.3313 5.87621 33.5867 9.25127C35.8422 12.6263 36.8575 16.679 36.4599 20.7188C36.0622 24.7586 34.2761 28.5355 31.4059 31.406C29.779 33.0383 27.8453 34.3327 25.7162 35.2147C23.5871 36.0968 21.3045 36.5491 18.9999 36.5457V38C23.3957 38 27.6554 36.4759 31.0534 33.6872C34.4514 30.8986 36.7773 27.0181 37.6349 22.7068C38.4925 18.3955 37.8286 13.9202 35.7565 10.0435C33.6844 6.16682 30.3322 3.12852 26.271 1.44632C22.2099 -0.235875 17.6911 -0.457886 13.4847 0.818118C9.2782 2.09412 5.6443 4.78919 3.20214 8.44411C0.759981 12.099 -0.33933 16.4877 0.0915137 20.8623C0.522358 25.2368 2.4567 29.3267 5.56495 32.435C7.32754 34.2016 9.42174 35.6027 11.7273 36.5577C14.0329 37.5127 16.5044 38.0028 18.9999 38V37.2716Z" fill="url(#paint10_linear_579_1401)"/>
<path d="M18.9249 1.39959V1.71159C22.9072 1.7119 26.7663 3.09301 29.8445 5.6196C32.9227 8.14618 35.0296 11.6619 35.8063 15.5678C36.583 19.4737 35.9813 23.528 34.1039 27.04C32.2265 30.552 29.1894 33.3044 25.5101 34.8282C21.8309 36.3521 17.7371 36.553 13.9262 35.3969C10.1154 34.2407 6.82336 31.799 4.61097 28.4878C2.39858 25.1766 1.40275 21.2006 1.79314 17.2375C2.18353 13.2743 3.93599 9.56914 6.75194 6.75321C8.34883 5.1524 10.2463 3.88291 12.3353 3.01771C14.4244 2.1525 16.6638 1.70863 18.9249 1.71159V1.08887C15.3971 1.08912 11.9485 2.13547 9.01538 4.09562C6.08222 6.05576 3.79616 8.84166 2.44629 12.101C1.09643 15.3604 0.743369 18.9468 1.43177 22.4069C2.12017 25.8669 3.81911 29.0451 6.31375 31.5395C8.80839 34.034 11.9867 35.7327 15.4468 36.4209C18.9068 37.109 22.4932 36.7557 25.7525 35.4056C29.0118 34.0555 31.7975 31.7693 33.7574 28.8359C35.7174 25.9026 36.7635 22.454 36.7635 18.9262C36.7635 16.5837 36.3021 14.2641 35.4056 12.0998C34.5091 9.93564 33.1951 7.96921 31.5386 6.31285C29.8821 4.65648 27.9156 3.34262 25.7513 2.44629C23.5871 1.54995 21.2674 1.0887 18.9249 1.08887V1.39959Z" fill="url(#paint11_linear_579_1401)"/>
<defs>
<linearGradient id="paint0_linear_579_1401" x1="19.0892" y1="3.18872" x2="19.0892" y2="34.4648" gradientUnits="userSpaceOnUse">
<stop offset="0.01" stop-color="#42371B"/>
<stop offset="1" stop-color="#201B0F" stop-opacity="0"/>
</linearGradient>
<linearGradient id="paint1_linear_579_1401" x1="23.4268" y1="32.0745" x2="13.4429" y2="14.781" gradientUnits="userSpaceOnUse">
<stop stop-color="#9A732B"/>
<stop offset="0.13" stop-color="#F0BD51"/>
<stop offset="0.31" stop-color="#FEEC6E"/>
<stop offset="0.68" stop-color="#DD9C2B"/>
<stop offset="0.85" stop-color="#FCD755"/>
</linearGradient>
<linearGradient id="paint2_linear_579_1401" x1="20.2581" y1="31.732" x2="7.66488" y2="9.92025" gradientUnits="userSpaceOnUse">
<stop stop-color="#9A732B"/>
<stop offset="0.13" stop-color="#F0BD51"/>
<stop offset="0.31" stop-color="#FEEC6E"/>
<stop offset="0.68" stop-color="#DD9C2B"/>
<stop offset="0.85" stop-color="#FCD755"/>
</linearGradient>
<linearGradient id="paint3_linear_579_1401" x1="20.6153" y1="26.3261" x2="10.7078" y2="9.16755" gradientUnits="userSpaceOnUse">
<stop stop-color="#9A732B"/>
<stop offset="0.13" stop-color="#F0BD51"/>
<stop offset="0.31" stop-color="#FEEC6E"/>
<stop offset="0.68" stop-color="#DD9C2B"/>
<stop offset="0.85" stop-color="#FCD755"/>
</linearGradient>
<linearGradient id="paint4_linear_579_1401" x1="21.2214" y1="17.8627" x2="15.4641" y2="7.89284" gradientUnits="userSpaceOnUse">
<stop stop-color="#9A732B"/>
<stop offset="0.13" stop-color="#F0BD51"/>
<stop offset="0.31" stop-color="#FEEC6E"/>
<stop offset="0.68" stop-color="#DD9C2B"/>
<stop offset="0.85" stop-color="#FCD755"/>
</linearGradient>
<linearGradient id="paint5_linear_579_1401" x1="20.2449" y1="20.9892" x2="15.1129" y2="12.1004" gradientUnits="userSpaceOnUse">
<stop stop-color="#9A732B"/>
<stop offset="0.13" stop-color="#F0BD51"/>
<stop offset="0.31" stop-color="#FEEC6E"/>
<stop offset="0.68" stop-color="#DD9C2B"/>
<stop offset="0.85" stop-color="#FCD755"/>
</linearGradient>
<linearGradient id="paint6_linear_579_1401" x1="28.4233" y1="25.8499" x2="23.7331" y2="17.7253" gradientUnits="userSpaceOnUse">
<stop stop-color="#9A732B"/>
<stop offset="0.13" stop-color="#F0BD51"/>
<stop offset="0.31" stop-color="#FEEC6E"/>
<stop offset="0.68" stop-color="#DD9C2B"/>
<stop offset="0.85" stop-color="#FCD755"/>
</linearGradient>
<linearGradient id="paint7_linear_579_1401" x1="28.4233" y1="25.8499" x2="23.7331" y2="17.7253" gradientUnits="userSpaceOnUse">
<stop stop-color="#9A732B"/>
<stop offset="0.13" stop-color="#F0BD51"/>
<stop offset="0.31" stop-color="#FEEC6E"/>
<stop offset="0.68" stop-color="#DD9C2B"/>
<stop offset="0.85" stop-color="#FCD755"/>
</linearGradient>
<linearGradient id="paint8_linear_579_1401" x1="18.6955" y1="27.8913" x2="13.1585" y2="18.3021" gradientUnits="userSpaceOnUse">
<stop stop-color="#9A732B"/>
<stop offset="0.13" stop-color="#F0BD51"/>
<stop offset="0.31" stop-color="#FEEC6E"/>
<stop offset="0.68" stop-color="#DD9C2B"/>
<stop offset="0.85" stop-color="#FCD755"/>
</linearGradient>
<linearGradient id="paint9_linear_579_1401" x1="28.5012" y1="35.4569" x2="9.49863" y2="2.54439" gradientUnits="userSpaceOnUse">
<stop stop-color="#9A732B"/>
<stop offset="0.13" stop-color="#F0BD51"/>
<stop offset="0.31" stop-color="#FEEC6E"/>
<stop offset="0.68" stop-color="#DD9C2B"/>
<stop offset="0.85" stop-color="#FCD755"/>
</linearGradient>
<linearGradient id="paint10_linear_579_1401" x1="28.5012" y1="35.4569" x2="9.49863" y2="2.54439" gradientUnits="userSpaceOnUse">
<stop stop-color="#9A732B"/>
<stop offset="0.13" stop-color="#F0BD51"/>
<stop offset="0.31" stop-color="#FEEC6E"/>
<stop offset="0.68" stop-color="#DD9C2B"/>
<stop offset="0.85" stop-color="#FCD755"/>
</linearGradient>
<linearGradient id="paint11_linear_579_1401" x1="27.8455" y1="34.3758" x2="10.0056" y2="3.47661" gradientUnits="userSpaceOnUse">
<stop stop-color="#9A732B"/>
<stop offset="0.13" stop-color="#F0BD51"/>
<stop offset="0.31" stop-color="#FEEC6E"/>
<stop offset="0.68" stop-color="#DD9C2B"/>
<stop offset="0.85" stop-color="#FCD755"/>
</linearGradient>
</defs>
</svg>
