<svg width="79" height="13" viewBox="0 0 79 13" fill="none" xmlns="http://www.w3.org/2000/svg">
<path opacity="0.4" d="M3.10923 8.66634C3.16882 8.40092 3.06048 8.02176 2.8709 7.83217L1.55465 6.51592C1.14298 6.10426 0.980483 5.66551 1.09965 5.28634C1.22423 4.90717 1.60882 4.64717 2.18298 4.54967L3.87298 4.26801C4.11673 4.22467 4.41465 4.00801 4.5284 3.78592L5.46007 1.91717C5.7309 1.38092 6.09923 1.08301 6.50007 1.08301C6.9009 1.08301 7.26923 1.38092 7.54007 1.91717L8.47173 3.78592C8.54215 3.92676 8.6884 4.06217 8.84548 4.15426L3.01173 9.98801C2.9359 10.0638 2.8059 9.99342 2.82757 9.88509L3.10923 8.66634Z" fill="#FCD755"/>
<path d="M10.1291 7.83253C9.9341 8.02753 9.82577 8.40128 9.89077 8.66669L10.2645 10.2971C10.4216 10.9742 10.3241 11.4834 9.98827 11.7271C9.85285 11.8246 9.69035 11.8734 9.50077 11.8734C9.22452 11.8734 8.89952 11.7704 8.54202 11.5592L6.95494 10.6167C6.70577 10.4704 6.2941 10.4704 6.04493 10.6167L4.45785 11.5592C3.8566 11.9113 3.34202 11.9709 3.0116 11.7271C2.88702 11.635 2.79493 11.5104 2.73535 11.3479L9.32202 4.76128C9.57118 4.51211 9.92327 4.39836 10.2645 4.45794L10.8116 4.55003C11.3858 4.64753 11.7704 4.90753 11.8949 5.28669C12.0141 5.66586 11.8516 6.10461 11.4399 6.51628L10.1291 7.83253Z" fill="#FCD755"/>
<path d="M19.4129 8.66634C19.4725 8.40092 19.3642 8.02176 19.1746 7.83217L17.8584 6.51592C17.4467 6.10426 17.2842 5.66551 17.4034 5.28634C17.5279 4.90717 17.9125 4.64717 18.4867 4.54967L20.1767 4.26801C20.4204 4.22467 20.7184 4.00801 20.8321 3.78592L21.7638 1.91717C22.0346 1.38092 22.4029 1.08301 22.8038 1.08301C23.2046 1.08301 23.5729 1.38092 23.8438 1.91717L24.7754 3.78592C24.8459 3.92676 24.9921 4.06217 25.1492 4.15426L19.3154 9.98801C19.2396 10.0638 19.1096 9.99342 19.1313 9.88509L19.4129 8.66634Z" fill="#FCD755"/>
<path d="M26.4328 7.83253C26.2378 8.02753 26.1295 8.40128 26.1945 8.66669L26.5682 10.2971C26.7253 10.9742 26.6278 11.4834 26.292 11.7271C26.1566 11.8246 25.9941 11.8734 25.8045 11.8734C25.5282 11.8734 25.2032 11.7704 24.8457 11.5592L23.2586 10.6167C23.0095 10.4704 22.5978 10.4704 22.3486 10.6167L20.7616 11.5592C20.1603 11.9113 19.6457 11.9709 19.3153 11.7271C19.1907 11.635 19.0986 11.5104 19.0391 11.3479L25.6257 4.76128C25.8749 4.51211 26.227 4.39836 26.5682 4.45794L27.1153 4.55003C27.6895 4.64753 28.0741 4.90753 28.1986 5.28669C28.3178 5.66586 28.1553 6.10461 27.7436 6.51628L26.4328 7.83253Z" fill="#FCD755"/>
<path d="M35.7167 8.66634C35.7762 8.40092 35.6679 8.02176 35.4783 7.83217L34.1621 6.51592C33.7504 6.10426 33.5879 5.66551 33.7071 5.28634C33.8317 4.90717 34.2162 4.64717 34.7904 4.54967L36.4804 4.26801C36.7242 4.22467 37.0221 4.00801 37.1358 3.78592L38.0675 1.91717C38.3383 1.38092 38.7067 1.08301 39.1075 1.08301C39.5083 1.08301 39.8767 1.38092 40.1475 1.91717L41.0792 3.78592C41.1496 3.92676 41.2958 4.06217 41.4529 4.15426L35.6192 9.98801C35.5433 10.0638 35.4133 9.99342 35.435 9.88509L35.7167 8.66634Z" fill="#FCD755"/>
<path d="M42.7365 7.83253C42.5415 8.02753 42.4332 8.40128 42.4982 8.66669L42.8719 10.2971C43.029 10.9742 42.9315 11.4834 42.5957 11.7271C42.4603 11.8246 42.2978 11.8734 42.1082 11.8734C41.8319 11.8734 41.5069 11.7704 41.1494 11.5592L39.5624 10.6167C39.3132 10.4704 38.9015 10.4704 38.6524 10.6167L37.0653 11.5592C36.464 11.9113 35.9494 11.9709 35.619 11.7271C35.4944 11.635 35.4024 11.5104 35.3428 11.3479L41.9294 4.76128C42.1786 4.51211 42.5307 4.39836 42.8719 4.45794L43.419 4.55003C43.9932 4.64753 44.3778 4.90753 44.5024 5.28669C44.6215 5.66586 44.459 6.10461 44.0474 6.51628L42.7365 7.83253Z" fill="#FCD755"/>
<path d="M52.0204 8.66634C52.0799 8.40092 51.9716 8.02176 51.782 7.83217L50.4658 6.51592C50.0541 6.10426 49.8916 5.66551 50.0108 5.28634C50.1354 4.90717 50.5199 4.64717 51.0941 4.54967L52.7841 4.26801C53.0279 4.22467 53.3258 4.00801 53.4395 3.78592L54.3712 1.91717C54.642 1.38092 55.0104 1.08301 55.4112 1.08301C55.812 1.08301 56.1804 1.38092 56.4512 1.91717L57.3829 3.78592C57.4533 3.92676 57.5995 4.06217 57.7566 4.15426L51.9229 9.98801C51.847 10.0638 51.717 9.99342 51.7387 9.88509L52.0204 8.66634Z" fill="#FCD755"/>
<path d="M59.0402 7.83253C58.8452 8.02753 58.7369 8.40128 58.8019 8.66669L59.1757 10.2971C59.3327 10.9742 59.2352 11.4834 58.8994 11.7271C58.764 11.8246 58.6015 11.8734 58.4119 11.8734C58.1357 11.8734 57.8107 11.7704 57.4532 11.5592L55.8661 10.6167C55.6169 10.4704 55.2052 10.4704 54.9561 10.6167L53.369 11.5592C52.7677 11.9113 52.2532 11.9709 51.9227 11.7271C51.7982 11.635 51.7061 11.5104 51.6465 11.3479L58.2332 4.76128C58.4823 4.51211 58.8344 4.39836 59.1757 4.45794L59.7227 4.55003C60.2969 4.64753 60.6815 4.90753 60.8061 5.28669C60.9252 5.66586 60.7627 6.10461 60.3511 6.51628L59.0402 7.83253Z" fill="#FCD755"/>
<path d="M68.3241 8.66634C68.3837 8.40092 68.2753 8.02176 68.0857 7.83217L66.7695 6.51592C66.3578 6.10426 66.1953 5.66551 66.3145 5.28634C66.4391 4.90717 66.8237 4.64717 67.3978 4.54967L69.0878 4.26801C69.3316 4.22467 69.6295 4.00801 69.7432 3.78592L70.6749 1.91717C70.9457 1.38092 71.3141 1.08301 71.7149 1.08301C72.1157 1.08301 72.4841 1.38092 72.7549 1.91717L73.6866 3.78592C73.757 3.92676 73.9032 4.06217 74.0603 4.15426L68.2266 9.98801C68.1507 10.0638 68.0207 9.99342 68.0424 9.88509L68.3241 8.66634Z" fill="#FCD755"/>
<path d="M75.3439 7.83253C75.1489 8.02753 75.0406 8.40128 75.1056 8.66669L75.4794 10.2971C75.6364 10.9742 75.5389 11.4834 75.2031 11.7271C75.0677 11.8246 74.9052 11.8734 74.7156 11.8734C74.4394 11.8734 74.1144 11.7704 73.7569 11.5592L72.1698 10.6167C71.9206 10.4704 71.5089 10.4704 71.2598 10.6167L69.6727 11.5592C69.0714 11.9113 68.5569 11.9709 68.2264 11.7271C68.1019 11.635 68.0098 11.5104 67.9502 11.3479L74.5369 4.76128C74.786 4.51211 75.1381 4.39836 75.4794 4.45794L76.0264 4.55003C76.6006 4.64753 76.9852 4.90753 77.1098 5.28669C77.2289 5.66586 77.0664 6.10461 76.6548 6.51628L75.3439 7.83253Z" fill="#FCD755"/>
</svg>
