<svg width="16" height="16" viewBox="0 0 16 16" fill="none" xmlns="http://www.w3.org/2000/svg">
<path d="M8.00671 11.3334C7.44005 11.3334 6.86671 11.1867 6.42005 10.9L2.40671 8.28002C1.66005 7.79336 1.21338 6.97336 1.21338 6.08002C1.21338 5.18669 1.66005 4.36669 2.40671 3.88002L6.42671 1.26669C7.32005 0.68669 8.71338 0.68669 9.60005 1.27336L13.5934 3.89336C14.3334 4.38002 14.78 5.20002 14.78 6.08669C14.78 6.97336 14.3334 7.79336 13.5934 8.28002L9.60005 10.9C9.15338 11.1934 8.58005 11.3334 8.00671 11.3334ZM8.00671 1.83336C7.62671 1.83336 7.24671 1.92002 6.97338 2.10669L2.96005 4.72002C2.49338 5.02669 2.22005 5.52002 2.22005 6.08002C2.22005 6.64002 2.48671 7.13336 2.96005 7.44002L6.97338 10.06C7.52671 10.42 8.50005 10.42 9.05338 10.06L13.0467 7.44002C13.5134 7.13336 13.78 6.64002 13.78 6.08002C13.78 5.52002 13.5134 5.02669 13.0467 4.72002L9.05338 2.10002C8.77338 1.92669 8.39338 1.83336 8.00671 1.83336Z" fill="#727D94"/>
<path d="M7.99996 15.1666C7.70662 15.1666 7.40662 15.1266 7.16662 15.0466L5.03996 14.34C4.03329 14.0066 3.23996 12.9066 3.24662 11.8466L3.25329 8.71997C3.25329 8.44664 3.47996 8.21997 3.75329 8.21997C4.02662 8.21997 4.25329 8.44664 4.25329 8.71997L4.24662 11.8466C4.24662 12.4733 4.76662 13.1933 5.35996 13.3933L7.48662 14.1C7.75329 14.1866 8.24662 14.1866 8.51329 14.1L10.64 13.3933C11.2333 13.1933 11.7533 12.4733 11.7533 11.8533V8.75997C11.7533 8.48664 11.98 8.25997 12.2533 8.25997C12.5266 8.25997 12.7533 8.48664 12.7533 8.75997V11.8533C12.7533 12.9133 11.9666 14.0066 10.96 14.3466L8.83329 15.0533C8.59329 15.1266 8.29329 15.1666 7.99996 15.1666Z" fill="#727D94"/>
<path d="M14.2666 10.5C13.9933 10.5 13.7666 10.2733 13.7666 10V6C13.7666 5.72667 13.9933 5.5 14.2666 5.5C14.5399 5.5 14.7666 5.72667 14.7666 6V10C14.7666 10.2733 14.5399 10.5 14.2666 10.5Z" fill="#727D94"/>
</svg>
