<svg width="48" height="48" viewBox="0 0 48 48" fill="none" xmlns="http://www.w3.org/2000/svg">
<path d="M24.0201 34C22.3201 34 20.6001 33.56 19.2601 32.7L7.22014 24.84C4.98014 23.38 3.64014 20.92 3.64014 18.24C3.64014 15.56 4.98014 13.1 7.22014 11.64L19.2801 3.80001C21.9601 2.06001 26.1401 2.06001 28.8001 3.82001L40.7801 11.68C43.0001 13.14 44.3401 15.6 44.3401 18.26C44.3401 20.92 43.0001 23.38 40.7801 24.84L28.8001 32.7C27.4601 33.58 25.7401 34 24.0201 34ZM24.0201 5.50001C22.8801 5.50001 21.7401 5.76001 20.9201 6.32001L8.88014 14.16C7.48014 15.08 6.66014 16.56 6.66014 18.24C6.66014 19.92 7.46014 21.4 8.88014 22.32L20.9201 30.18C22.5801 31.26 25.5001 31.26 27.1601 30.18L39.1401 22.32C40.5401 21.4 41.3401 19.92 41.3401 18.24C41.3401 16.56 40.5401 15.08 39.1401 14.16L27.1601 6.30001C26.3201 5.78001 25.1801 5.50001 24.0201 5.50001Z" fill="#131519"/>
<path d="M23.9999 45.5C23.1199 45.5 22.2199 45.38 21.4999 45.14L15.1199 43.02C12.0999 42.02 9.71987 38.72 9.73987 35.54L9.75987 26.16C9.75987 25.34 10.4399 24.66 11.2599 24.66C12.0799 24.66 12.7599 25.34 12.7599 26.16L12.7399 35.54C12.7399 37.42 14.2999 39.58 16.0799 40.18L22.4599 42.3C23.2599 42.56 24.7399 42.56 25.5399 42.3L31.9199 40.18C33.6999 39.58 35.2599 37.42 35.2599 35.56V26.28C35.2599 25.46 35.9399 24.78 36.7599 24.78C37.5799 24.78 38.2599 25.46 38.2599 26.28V35.56C38.2599 38.74 35.8999 42.02 32.8799 43.04L26.4999 45.16C25.7799 45.38 24.8799 45.5 23.9999 45.5Z" fill="#131519"/>
<path d="M42.7998 31.5C41.9798 31.5 41.2998 30.82 41.2998 30V18C41.2998 17.18 41.9798 16.5 42.7998 16.5C43.6198 16.5 44.2998 17.18 44.2998 18V30C44.2998 30.82 43.6198 31.5 42.7998 31.5Z" fill="#131519"/>
</svg>
