<svg width="16" height="16" viewBox="0 0 16 16" fill="none" xmlns="http://www.w3.org/2000/svg">
<path d="M10.3333 10.5C10.2133 10.5 10.08 10.4934 9.95333 10.4867C9.70666 10.4734 9.50667 10.2734 9.48667 10.0267C9.34001 8.16671 7.82666 6.66003 5.97333 6.51337C5.72666 6.49337 5.52666 6.29338 5.51333 6.04671C5.50666 5.92005 5.5 5.79337 5.5 5.66671C5.5 3.00004 7.66667 0.833374 10.3333 0.833374C13 0.833374 15.1667 3.00004 15.1667 5.66671C15.1667 8.33337 13 10.5 10.3333 10.5ZM6.5 5.57336C8.48667 5.92003 10.08 7.51337 10.4267 9.50004C12.5 9.44671 14.1667 7.75337 14.1667 5.66671C14.1667 3.55337 12.4467 1.83337 10.3333 1.83337C8.25333 1.83337 6.55333 3.50003 6.5 5.57336Z" fill="#727D94"/>
<path d="M5.66683 15.1667C3.00016 15.1667 0.833496 13 0.833496 10.3333C0.833496 7.66667 3.00016 5.5 5.66683 5.5C5.78683 5.5 5.92017 5.50666 6.04683 5.51333C8.40017 5.69999 10.3068 7.60668 10.4868 9.94668C10.4935 10.08 10.5002 10.2067 10.5002 10.3333C10.5002 13 8.3335 15.1667 5.66683 15.1667ZM5.66683 6.5C3.5535 6.5 1.8335 8.22 1.8335 10.3333C1.8335 12.4467 3.5535 14.1667 5.66683 14.1667C7.78016 14.1667 9.50016 12.4467 9.50016 10.3333C9.50016 10.2267 9.4935 10.12 9.48684 10.02C9.34017 8.17333 7.83349 6.65999 5.97349 6.51333C5.88016 6.50666 5.7735 6.5 5.66683 6.5Z" fill="#727D94"/>
<path d="M2.00016 4.89337C1.84683 4.89337 1.70015 4.8667 1.55349 4.8067C1.11349 4.6267 0.833496 4.20004 0.833496 3.72671V2.00004C0.833496 1.36004 1.36016 0.833374 2.00016 0.833374H3.72683C4.20016 0.833374 4.62016 1.11337 4.80682 1.55337C4.98682 1.99337 4.88682 2.49337 4.55349 2.8267L2.82682 4.55337C2.60016 4.77337 2.30683 4.89337 2.00016 4.89337ZM2.00016 1.83337C1.90683 1.83337 1.8335 1.90671 1.8335 2.00004V3.72671C1.8335 3.8267 1.90016 3.86671 1.93349 3.88005C1.97349 3.89338 2.04684 3.91337 2.11351 3.8467L3.84017 2.12004C3.90684 2.05337 3.89349 1.98004 3.87349 1.94004C3.85349 1.90004 3.81349 1.84005 3.72015 1.84005H2.00016V1.83337Z" fill="#727D94"/>
<path d="M14 15.1667H12.2734C11.8 15.1667 11.38 14.8867 11.1934 14.4467C11.0134 14.0067 11.1134 13.5067 11.4467 13.1734L13.1734 11.4467C13.5067 11.1134 14.0067 11.0134 14.4467 11.1934C14.8867 11.3734 15.1667 11.8 15.1667 12.2734V14C15.1667 14.64 14.64 15.1667 14 15.1667ZM13.9934 12.1067C13.96 12.1067 13.92 12.12 13.88 12.16L12.1534 13.8867C12.0867 13.9534 12.1 14.0267 12.12 14.0667C12.14 14.1067 12.18 14.1667 12.2734 14.1667H14C14.0934 14.1667 14.1667 14.0934 14.1667 14V12.2734C14.1667 12.1734 14.1 12.1334 14.0667 12.12C14.0467 12.1134 14.02 12.1067 13.9934 12.1067Z" fill="#727D94"/>
</svg>
