<svg width="22" height="22" viewBox="0 0 22 22" fill="none" xmlns="http://www.w3.org/2000/svg">
<path opacity="0.4" d="M9.85414 2.24596C10.4866 1.70512 11.5225 1.70512 12.1641 2.24596L13.6125 3.49262C13.8875 3.73096 14.4008 3.92346 14.7675 3.92346H16.3258C17.2975 3.92346 18.095 4.72096 18.095 5.69262V7.25096C18.095 7.60846 18.2875 8.13096 18.5258 8.40596L19.7725 9.85429C20.3133 10.4868 20.3133 11.5226 19.7725 12.1643L18.5258 13.6126C18.2875 13.8876 18.095 14.401 18.095 14.7676V16.326C18.095 17.2976 17.2975 18.0951 16.3258 18.0951H14.7675C14.41 18.0951 13.8875 18.2876 13.6125 18.526L12.1641 19.7726C11.5316 20.3135 10.4958 20.3135 9.85414 19.7726L8.40581 18.526C8.13081 18.2876 7.61747 18.0951 7.25081 18.0951H5.66497C4.69331 18.0951 3.89581 17.2976 3.89581 16.326V14.7585C3.89581 14.401 3.70331 13.8876 3.47414 13.6126L2.23664 12.1551C1.70497 11.5226 1.70497 10.496 2.23664 9.86346L3.47414 8.40596C3.70331 8.13096 3.89581 7.61762 3.89581 7.26012V5.68346C3.89581 4.71179 4.69331 3.91429 5.66497 3.91429H7.25081C7.60831 3.91429 8.13081 3.72179 8.40581 3.48346L9.85414 2.24596Z" fill="#236811"/>
<path d="M9.89085 13.9057C9.70751 13.9057 9.53335 13.8323 9.40501 13.704L7.18668 11.4857C6.92085 11.2198 6.92085 10.7798 7.18668 10.514C7.45251 10.2482 7.89251 10.2482 8.15835 10.514L9.89085 12.2465L13.8325 8.30484C14.0983 8.03901 14.5383 8.03901 14.8042 8.30484C15.07 8.57068 15.07 9.01068 14.8042 9.27651L10.3767 13.704C10.2483 13.8323 10.0742 13.9057 9.89085 13.9057Z" fill="#236811"/>
</svg>
