<svg width="55" height="24" viewBox="0 0 55 24" fill="none" xmlns="http://www.w3.org/2000/svg">
<g clip-path="url(#clip0_312_4684)">
<path d="M31.175 9.43545L30.6709 7.74638H28.1371L27.6338 9.43545H26.0459L28.4986 2.3092H30.3007L32.7629 9.43545H31.175ZM30.3196 6.48361C29.8533 4.95326 29.5908 4.08755 29.532 3.88647C29.4732 3.68539 29.4312 3.52694 29.406 3.41112C29.3009 3.82561 29.0014 4.84977 28.5073 6.48361H30.3196Z" fill="white"/>
<path d="M16.5129 18.3634C15.3138 19.2187 13.9187 19.7433 12.4628 19.8863C11.0069 20.0293 9.53948 19.7858 8.20278 19.1795C6.86608 18.5732 5.7054 17.6245 4.83323 16.4255C3.96105 15.2265 3.40695 13.8178 3.22461 12.3358C3.24365 14.3505 3.96651 16.292 5.26301 17.8107C6.55951 19.3294 8.34443 20.3255 10.2963 20.6195C12.2482 20.9135 14.2387 20.4862 15.9094 19.4144C17.5801 18.3427 18.8211 16.697 19.409 14.7737C18.7839 16.2186 17.7821 17.4604 16.5129 18.3634Z" fill="white"/>
<path d="M12.3176 18.8604C7.76973 18.8604 4.0828 14.9788 4.0828 10.1923C4.07992 8.75673 4.41917 7.34199 5.07128 6.07019C4.159 7.48256 3.67464 9.1382 3.67874 10.8301C3.67874 15.5 7.27509 19.2859 11.7126 19.2859C13.333 19.2871 14.9137 18.7747 16.2368 17.8196C15.0394 18.504 13.6898 18.8625 12.3176 18.8604Z" fill="white"/>
<path d="M8.0395 16.2721C7.08011 15.3921 6.37196 14.2633 5.99021 13.0054C5.60847 11.7476 5.56737 10.4076 5.87129 9.12786C6.17522 7.84808 6.81281 6.67621 7.7164 5.73666C8.61998 4.79711 9.75583 4.12494 11.0034 3.7915C9.37157 4.03433 7.87704 4.86046 6.7857 6.12289C5.69436 7.38532 5.07699 9.00218 5.04344 10.6858C5.00988 12.3694 5.56232 14.0106 6.60246 15.3173C7.6426 16.624 9.10298 17.5116 10.7238 17.822C9.72868 17.5123 8.81234 16.9832 8.0395 16.2721Z" fill="white"/>
<path d="M7.04105 9.96863C7.21824 8.89987 7.6439 7.8901 8.28229 7.02407C8.92069 6.15804 9.75319 5.46102 10.7099 4.9915C11.6667 4.52199 12.7198 4.29367 13.7808 4.32573C14.8418 4.35778 15.8799 4.64926 16.8078 5.17571C15.5588 4.26647 14.0341 3.83984 12.5057 3.9719C10.9773 4.10397 9.54454 4.78613 8.46291 5.89675C7.38129 7.00736 6.72115 8.4742 6.60023 10.0357C6.47931 11.5971 6.90546 13.1517 7.80269 14.4221C7.05443 13.0714 6.78542 11.4984 7.04105 9.96863Z" fill="white"/>
<path d="M11.7417 13.7159C11.7417 13.7159 11.8756 12.4202 13.662 11.3352C13.662 11.3352 13.5123 10.2204 12.3159 8.69701C11.1195 7.17363 11.2061 6.54626 11.2061 6.54626C11.2061 6.54626 8.1572 10.6708 9.6159 12.4789C9.89709 12.8264 10.9738 13.3234 11.1282 13.539C11.214 13.6596 10.9068 12.9864 10.7611 12.1596C10.6602 11.5153 10.6642 10.8585 10.7729 10.2156C10.7729 10.2156 10.9061 13.2358 11.7417 13.7159Z" fill="white"/>
<path d="M12.2777 17.2985C15.0006 16.3631 17.3398 12.9439 17.3398 12.9439C15.9898 16.0928 12.3486 17.7698 12.3486 17.7698C20.9275 18.3385 19.3066 8.68103 19.3066 8.68103C19.3066 8.68103 18.1275 10.2792 15.4219 11.0393C12.7164 11.7994 11.6303 13.597 12.1879 14.637C12.7455 15.677 12.2777 17.2985 12.2777 17.2985Z" fill="white"/>
<path d="M12.2777 17.2985C15.0006 16.3631 17.3398 12.9439 17.3398 12.9439C15.9898 16.0928 12.3486 17.7698 12.3486 17.7698C20.9275 18.3385 19.3066 8.68103 19.3066 8.68103C19.3066 8.68103 18.1275 10.2792 15.4219 11.0393C12.7164 11.7994 11.6303 13.597 12.1879 14.637C12.7455 15.677 12.2777 17.2985 12.2777 17.2985Z" fill="white"/>
<path d="M12.0625 17.3178C12.3933 16.0092 12.1152 15.3472 11.9049 14.9217C11.4631 14.0193 10.1414 13.3195 9.50972 12.9013C9.25569 12.7399 9.01207 12.5621 8.78037 12.3688C8.19515 11.8742 8.0518 11.731 7.99273 11.6449C7.91396 11.5323 7.47131 14.2992 8.88355 16.0896C8.88355 16.0896 10.0051 17.514 11.4977 17.6017H11.5056C11.5292 17.5663 10.6542 16.8368 10.0296 15.9858C9.4916 15.2547 9.04737 14.3901 9.01744 14.2839C8.98751 14.1777 10.7164 17.1843 12.0625 17.3178Z" fill="white"/>
<path d="M11.7515 23.54V23.0815C9.24083 23.0817 6.80774 22.1929 4.86684 20.5666C2.92593 18.9402 1.59729 16.677 1.1073 14.1624C0.617318 11.6478 0.996306 9.03757 2.17969 6.77637C3.36308 4.51516 5.27764 2.74293 7.59716 1.76163C9.91668 0.78033 12.4976 0.650686 14.9003 1.39478C17.3029 2.13888 19.3785 3.71069 20.7735 5.84237C22.1685 7.97406 22.7966 10.5337 22.5506 13.0853C22.3046 15.6368 21.1999 18.0223 19.4247 19.8353C18.4184 20.8663 17.2224 21.6838 15.9056 22.2409C14.5887 22.798 13.1769 23.0837 11.7515 23.0815V24.0001C14.4703 24.0001 17.105 23.0374 19.2067 21.2761C21.3083 19.5148 22.7469 17.0639 23.2773 14.3409C23.8078 11.6179 23.3972 8.7913 22.1156 6.34276C20.8339 3.89423 18.7606 1.97524 16.2488 0.912764C13.7369 -0.149711 10.942 -0.289933 8.34032 0.515991C5.7386 1.32192 3.49102 3.02412 1.98054 5.33257C0.470051 7.64102 -0.209877 10.4129 0.0566016 13.1759C0.32308 15.9389 1.51948 18.522 3.44195 20.4852C4.53211 21.601 5.82739 22.4859 7.25339 23.0891C8.6794 23.6923 10.208 24.0019 11.7515 24.0001V23.54Z" fill="white"/>
<path d="M11.7515 23.54V23.0815C9.24083 23.0817 6.80774 22.1929 4.86684 20.5666C2.92593 18.9402 1.59729 16.677 1.1073 14.1624C0.617318 11.6478 0.996306 9.03757 2.17969 6.77637C3.36308 4.51516 5.27764 2.74293 7.59716 1.76163C9.91668 0.78033 12.4976 0.650686 14.9003 1.39478C17.3029 2.13888 19.3785 3.71069 20.7735 5.84237C22.1685 7.97406 22.7966 10.5337 22.5506 13.0853C22.3046 15.6368 21.1999 18.0223 19.4247 19.8353C18.4184 20.8663 17.2224 21.6838 15.9056 22.2409C14.5887 22.798 13.1769 23.0837 11.7515 23.0815V24.0001C14.4703 24.0001 17.105 23.0374 19.2067 21.2761C21.3083 19.5148 22.7469 17.0639 23.2773 14.3409C23.8078 11.6179 23.3972 8.7913 22.1156 6.34276C20.8339 3.89423 18.7606 1.97524 16.2488 0.912764C13.7369 -0.149711 10.942 -0.289933 8.34032 0.515991C5.7386 1.32192 3.49102 3.02412 1.98054 5.33257C0.470051 7.64102 -0.209877 10.4129 0.0566016 13.1759C0.32308 15.9389 1.51948 18.522 3.44195 20.4852C4.53211 21.601 5.82739 22.4859 7.25339 23.0891C8.6794 23.6923 10.208 24.0019 11.7515 24.0001V23.54Z" fill="white"/>
<path d="M11.7055 0.883143V1.0802C14.1686 1.0804 16.5554 1.95271 18.4593 3.5485C20.3632 5.14429 21.6663 7.36483 22.1467 9.83178C22.6271 12.2987 22.255 14.8594 21.0938 17.0776C19.9326 19.2958 18.0541 21.0342 15.7785 21.9967C13.5028 22.9591 10.9708 23.0861 8.6138 22.3558C6.25679 21.6256 4.22064 20.0835 2.85227 17.9921C1.48389 15.9007 0.867963 13.3895 1.10942 10.8864C1.35088 8.38323 2.43479 6.04303 4.17646 4.26449C5.16414 3.25342 6.33774 2.45161 7.62982 1.90515C8.9219 1.35868 10.307 1.07833 11.7055 1.0802V0.68689C9.52352 0.687049 7.39058 1.34793 5.57641 2.58595C3.76224 3.82398 2.3483 5.58356 1.5134 7.64217C0.678503 9.70079 0.460136 11.966 0.885915 14.1513C1.31169 16.3367 2.36249 18.344 3.90544 19.9195C5.44839 21.4951 7.41418 22.568 9.55425 23.0026C11.6943 23.4372 13.9125 23.2141 15.9284 22.3614C17.9443 21.5086 19.6673 20.0646 20.8795 18.212C22.0917 16.3593 22.7387 14.1811 22.7387 11.953C22.7387 10.4734 22.4533 9.00834 21.8989 7.64143C21.3444 6.27452 20.5317 5.03252 19.5071 3.98636C18.4826 2.9402 17.2663 2.11036 15.9277 1.54424C14.5891 0.978111 13.1544 0.686784 11.7055 0.68689V0.883143Z" fill="white"/>
<path d="M35.1104 6.71518V9.43538H33.6367V2.34131H35.6617C36.6069 2.34131 37.3058 2.51692 37.7584 2.86814C38.2111 3.21935 38.4376 3.75262 38.4382 4.46792C38.4438 4.86628 38.3258 5.25623 38.1011 5.5819C37.8574 5.92175 37.5265 6.18619 37.1449 6.346C38.1908 7.94176 38.8735 8.97263 39.1927 9.4386H37.5536L35.8949 6.71518H35.1104ZM35.1104 5.49182H35.583C36.0482 5.49182 36.3921 5.41138 36.6148 5.25052C36.8374 5.08966 36.9482 4.84059 36.9472 4.50331C36.9472 4.16711 36.8337 3.92769 36.6069 3.78506C36.3801 3.64242 36.0304 3.57218 35.5578 3.57433H35.1104V5.49182Z" fill="white"/>
<path d="M46.3718 5.88041C46.3718 7.05579 46.0867 7.95877 45.5165 8.58935C44.9462 9.21993 44.1284 9.53549 43.063 9.53603C41.9991 9.53603 41.1816 9.22047 40.6103 8.58935C40.039 7.95823 39.7538 7.05203 39.7549 5.87076C39.7549 4.6911 40.0408 3.78892 40.6126 3.16424C41.1844 2.53955 42.0044 2.22801 43.0724 2.22962C44.1405 2.22962 44.9575 2.54357 45.5235 3.17147C46.0896 3.79938 46.3724 4.70236 46.3718 5.88041ZM41.2994 5.88041C41.2994 6.67347 41.447 7.27054 41.7421 7.67163C42.0372 8.07271 42.4775 8.27325 43.063 8.27325C44.2386 8.27325 44.8267 7.47564 44.8273 5.88041C44.8278 4.28518 44.2428 3.48623 43.0724 3.48355C42.4864 3.48355 42.0445 3.6849 41.7468 4.08759C41.4491 4.49029 41.3 5.08789 41.2994 5.88041Z" fill="white"/>
<path d="M53.9781 9.43538H52.1051L49.0814 4.06978H49.0389C49.0987 5.01781 49.1286 5.69424 49.1286 6.09907V9.43538H47.8125V2.34131H49.6713L52.6896 7.65704H52.7226C52.6754 6.73475 52.6518 6.08272 52.6518 5.70094V2.34131H53.9781V9.43538Z" fill="white"/>
<path d="M28.4718 12.6986H30.4716V15.3673C30.1733 15.4688 29.8671 15.5447 29.5564 15.5941C29.2659 15.6379 28.9726 15.6597 28.679 15.6593C27.9181 15.6593 27.3371 15.4311 26.9359 14.9748C26.5348 14.5185 26.3344 13.863 26.335 13.0083C26.335 12.1777 26.5676 11.5299 27.0328 11.065C27.498 10.6001 28.1434 10.3677 28.9688 10.3677C29.4837 10.367 29.9932 10.4749 30.4653 10.6846L30.1109 11.5573C29.7551 11.3727 29.3617 11.2762 28.9625 11.2758C28.4999 11.2758 28.13 11.4342 27.8527 11.7511C27.5755 12.068 27.4363 12.494 27.4353 13.0292C27.4353 13.5879 27.5474 14.0145 27.7716 14.3088C27.9958 14.6032 28.3216 14.7507 28.7491 14.7512C28.9771 14.7504 29.2045 14.7267 29.428 14.6804V13.6067H28.4718V12.6986Z" fill="white"/>
<path d="M32.7397 13.6178V15.5884H31.6748V10.4408H33.1398C33.8224 10.4408 34.3294 10.5681 34.6607 10.8228C34.9921 11.0775 35.1562 11.4642 35.153 11.9827C35.1565 12.2703 35.0711 12.5518 34.9088 12.787C34.7323 13.0335 34.4924 13.2253 34.2157 13.3412C34.974 14.4983 35.4681 15.2458 35.6981 15.5836H34.5103L33.3092 13.6178H32.7397ZM32.7397 12.7331H33.0847C33.4228 12.7331 33.6723 12.6755 33.8329 12.5602C33.9936 12.4449 34.074 12.2642 34.074 12.0181C34.074 11.7746 33.9918 11.6009 33.8274 11.4969C33.6631 11.3928 33.4087 11.3414 33.0642 11.3424H32.7397V12.7331Z" fill="white"/>
<path d="M40.9075 13.0082C40.9075 13.8602 40.7006 14.5149 40.2868 14.9723C39.873 15.4297 39.28 15.6587 38.5075 15.6592C37.7357 15.6592 37.1428 15.4302 36.7291 14.9723C36.3153 14.5144 36.1084 13.8573 36.1084 13.0009C36.1084 12.143 36.3158 11.4888 36.7306 11.0384C37.1455 10.588 37.7401 10.362 38.5146 10.3604C39.2897 10.3604 39.8822 10.588 40.2923 11.0432C40.7024 11.4985 40.9075 12.1534 40.9075 13.0082ZM37.2292 13.0082C37.2292 13.583 37.3361 14.016 37.5498 14.3071C37.7635 14.5983 38.0827 14.7439 38.5075 14.7439C39.3608 14.7439 39.7875 14.1653 39.7875 13.0082C39.7875 11.851 39.3632 11.2714 38.5146 11.2692C38.0893 11.2692 37.7687 11.4151 37.5529 11.7068C37.3371 11.9985 37.2292 12.4323 37.2292 13.0082Z" fill="white"/>
<path d="M46.0547 10.4417V13.7723C46.062 14.1226 45.9757 14.4682 45.805 14.7721C45.6353 15.0613 45.3834 15.2908 45.0827 15.43C44.7318 15.5904 44.3502 15.6687 43.9658 15.6593C43.3179 15.6593 42.8143 15.4895 42.4551 15.1501C42.096 14.8107 41.9169 14.3466 41.918 13.7578V10.4417H42.9829V13.5922C42.9829 13.9895 43.0616 14.2798 43.2192 14.4656C43.3767 14.6514 43.6334 14.7439 43.995 14.7439C44.3442 14.7439 44.5975 14.6506 44.755 14.464C44.9126 14.2774 44.9913 13.9847 44.9913 13.5857V10.4417H46.0547Z" fill="white"/>
<path d="M50.7712 12.047C50.7712 12.6015 50.6019 13.0251 50.2632 13.3178C49.9245 13.6106 49.4422 13.7573 48.8163 13.7578H48.3579V15.5884H47.2891V10.4408H48.899C49.5113 10.4408 49.9762 10.5748 50.2939 10.843C50.6116 11.1111 50.7707 11.5124 50.7712 12.047ZM48.3579 12.8634H48.71C49.0387 12.8634 49.2844 12.7972 49.4472 12.6647C49.5299 12.5948 49.5952 12.5058 49.6377 12.4052C49.6803 12.3045 49.6989 12.195 49.6921 12.0856C49.6921 11.8299 49.6239 11.6422 49.4874 11.5226C49.3508 11.403 49.1369 11.3408 48.8454 11.336H48.3595L48.3579 12.8634Z" fill="white"/>
<path d="M54.6981 14.1591C54.6981 14.624 54.5343 14.9903 54.2066 15.2578C53.879 15.5254 53.4235 15.6595 52.8401 15.66C52.3472 15.6697 51.8586 15.5637 51.4121 15.3503V14.3353C51.692 14.4675 51.9817 14.5769 52.2785 14.6626C52.4892 14.7225 52.7065 14.7544 52.9252 14.7575C53.1615 14.7575 53.3395 14.7117 53.4647 14.6208C53.527 14.5743 53.5769 14.5124 53.6096 14.441C53.6424 14.3696 53.657 14.2909 53.6522 14.2122C53.6547 14.1161 53.6271 14.0217 53.5734 13.9428C53.5065 13.8529 53.4243 13.7761 53.3308 13.716C53.1197 13.5867 52.9015 13.4701 52.6771 13.3669C52.4289 13.2564 52.1959 13.1133 51.9839 12.9414C51.8327 12.8082 51.7077 12.6469 51.6153 12.4661C51.5198 12.2693 51.4725 12.0518 51.4775 11.8323C51.4775 11.377 51.6284 11.0191 51.9304 10.7585C52.2323 10.4979 52.6479 10.3676 53.1772 10.3676C53.4301 10.3663 53.6821 10.3982 53.927 10.4625C54.1823 10.5322 54.4319 10.6217 54.6737 10.7303L54.3295 11.5789C54.1127 11.4846 53.8898 11.4056 53.6624 11.3424C53.4926 11.2989 53.3184 11.2765 53.1433 11.2757C52.9761 11.2641 52.8104 11.3157 52.6778 11.4204C52.6249 11.4667 52.5828 11.5246 52.5547 11.5898C52.5266 11.6549 52.5132 11.7257 52.5156 11.7969C52.5137 11.8854 52.5363 11.9727 52.581 12.0486C52.6361 12.1315 52.7071 12.2021 52.7897 12.2561C53.0083 12.39 53.2345 12.5106 53.4671 12.6173C53.9396 12.8473 54.2626 13.0779 54.4358 13.309C54.615 13.5539 54.7075 13.8536 54.6981 14.1591Z" fill="white"/>
<path d="M26.7715 17.0289H28.3672C29.0961 17.0289 29.6251 17.1348 29.9543 17.3466C30.2836 17.5584 30.4482 17.8952 30.4482 18.3569C30.4594 18.6311 30.3834 18.9017 30.2316 19.1282C30.1645 19.2248 30.0791 19.3067 29.9805 19.369C29.8819 19.4313 29.772 19.4728 29.6574 19.4909V19.5271C29.9824 19.6011 30.2171 19.7397 30.3615 19.943C30.5059 20.1462 30.5781 20.4164 30.5781 20.7537C30.5781 21.232 30.4088 21.6052 30.0701 21.8733C29.7314 22.1414 29.2717 22.2755 28.691 22.2755H26.7715V17.0289ZM27.8608 19.1073H28.4909C28.7865 19.1073 29.0005 19.0606 29.1328 18.9673C29.2651 18.874 29.3313 18.7196 29.3313 18.504C29.3379 18.4185 29.3211 18.3328 29.2829 18.2564C29.2447 18.18 29.1865 18.116 29.1147 18.0713C28.9706 17.9845 28.7429 17.9402 28.4318 17.9402H27.8584L27.8608 19.1073ZM27.8608 19.992V21.3594H28.5697C28.869 21.3594 29.0903 21.3007 29.2336 21.1832C29.377 21.0658 29.4484 20.8864 29.4479 20.6451C29.4479 20.2103 29.1433 19.9926 28.5342 19.992H27.8608Z" fill="white"/>
<path d="M32.6989 20.2623V22.2731H31.6064V17.0289H33.103C33.8008 17.0289 34.3175 17.1587 34.653 17.4182C34.9886 17.6777 35.1563 18.0732 35.1563 18.6046C35.159 18.8981 35.0708 19.1849 34.9043 19.4242C34.7237 19.6753 34.4782 19.8702 34.1954 19.9872C34.9689 21.1669 35.4727 21.9288 35.7069 22.2731H34.5026L33.2762 20.2623H32.6989ZM32.6989 19.3582H33.051C33.3954 19.3582 33.6496 19.2995 33.8134 19.1821C33.9772 19.0655 34.0592 18.8805 34.0592 18.6295C34.0592 18.3786 33.9757 18.204 33.8079 18.0987C33.6401 17.9933 33.381 17.9378 33.0297 17.9378H32.6989V19.3582Z" fill="white"/>
<path d="M41.0211 19.6454C41.0211 20.5135 40.811 21.1808 40.3909 21.6473C39.9709 22.1139 39.367 22.3471 38.5794 22.3471C37.7917 22.3471 37.1879 22.1139 36.7678 21.6473C36.3477 21.1808 36.1377 20.5106 36.1377 19.6366C36.1377 18.7631 36.349 18.096 36.7717 17.6354C37.1944 17.1748 37.8007 16.9448 38.5904 16.9453C39.378 16.9453 39.9819 17.1772 40.402 17.641C40.822 18.1049 41.0284 18.773 41.0211 19.6454ZM37.2719 19.6454C37.2719 20.232 37.3806 20.6733 37.598 20.9693C37.8154 21.2653 38.1412 21.4136 38.5754 21.4141C39.4439 21.4141 39.8784 20.8243 39.879 19.6446C39.8795 18.4649 39.4474 17.8751 38.5825 17.8751C38.1488 17.8751 37.8219 18.0239 37.6019 18.3215C37.3819 18.6191 37.2719 19.0604 37.2719 19.6454Z" fill="white"/>
<path d="M46.2187 22.2755H44.9813L43.636 20.0652L43.1745 20.4022V22.2755H42.0859V17.0289H43.1745V19.4298L43.6029 18.8129L44.9947 17.0289H46.2037L44.4118 19.351L46.2187 22.2755Z" fill="white"/>
<path d="M49.8244 22.2755H46.8652V17.0289H49.8244V17.9402H47.9545V19.0928H49.6936V20.0041H47.9545V21.357H49.8244V22.2755Z" fill="white"/>
<path d="M51.9852 20.2623V22.2731H50.8936V17.0289H52.3901C53.0879 17.0289 53.6046 17.1587 53.9401 17.4182C54.2757 17.6777 54.4442 18.0732 54.4458 18.6046C54.45 18.8992 54.3625 19.1875 54.1961 19.4282C54.0155 19.6793 53.7701 19.8743 53.4872 19.9912C54.2607 21.1709 54.7645 21.9328 54.9987 22.2771H53.7921L52.5657 20.2663L51.9852 20.2623ZM51.9852 19.3582H52.3373C52.6812 19.3582 52.9354 19.2995 53.0997 19.1821C53.2636 19.0655 53.3455 18.8805 53.3455 18.6295C53.3455 18.3786 53.262 18.204 53.0942 18.0987C52.9264 17.9933 52.6673 17.9378 52.316 17.9378H51.9852V19.3582Z" fill="white"/>
</g>
<defs>
<clipPath id="clip0_312_4684">
<rect width="55" height="24" fill="white"/>
</clipPath>
</defs>
</svg>
